<mxfile host="Electron" agent="Mozilla/5.0 (Windows NT 10.0; Win64; x64) AppleWebKit/537.36 (KHTML, like Gecko) draw.io/25.0.2 Chrome/128.0.6613.186 Electron/32.2.5 Safari/537.36" version="25.0.2">
  <diagram name="Page-1" id="fe17RKB5ncaAY6Bj_HTB">
    <mxGraphModel dx="1303" dy="1533" grid="1" gridSize="10" guides="1" tooltips="1" connect="1" arrows="1" fold="1" page="1" pageScale="1" pageWidth="850" pageHeight="1100" math="0" shadow="0">
      <root>
        <mxCell id="0" />
        <mxCell id="1" parent="0" />
        <mxCell id="CyLRwEdK9yTQJQerz9uX-1" value="" style="ellipse;html=1;shape=startState;fillColor=#000000;strokeColor=#ff0000;" vertex="1" parent="1">
          <mxGeometry x="390" y="40" width="30" height="30" as="geometry" />
        </mxCell>
        <mxCell id="CyLRwEdK9yTQJQerz9uX-2" value="" style="edgeStyle=orthogonalEdgeStyle;html=1;verticalAlign=bottom;endArrow=open;endSize=8;strokeColor=#ff0000;rounded=0;" edge="1" source="CyLRwEdK9yTQJQerz9uX-1" parent="1">
          <mxGeometry relative="1" as="geometry">
            <mxPoint x="405" y="130" as="targetPoint" />
          </mxGeometry>
        </mxCell>
        <mxCell id="CyLRwEdK9yTQJQerz9uX-32" style="edgeStyle=orthogonalEdgeStyle;rounded=0;orthogonalLoop=1;jettySize=auto;html=1;exitX=0.5;exitY=1;exitDx=0;exitDy=0;" edge="1" parent="1" source="CyLRwEdK9yTQJQerz9uX-3" target="CyLRwEdK9yTQJQerz9uX-5">
          <mxGeometry relative="1" as="geometry" />
        </mxCell>
        <mxCell id="CyLRwEdK9yTQJQerz9uX-3" value="User logs into Moodle" style="rounded=1;whiteSpace=wrap;html=1;" vertex="1" parent="1">
          <mxGeometry x="345" y="130" width="120" height="60" as="geometry" />
        </mxCell>
        <mxCell id="CyLRwEdK9yTQJQerz9uX-33" style="edgeStyle=orthogonalEdgeStyle;rounded=0;orthogonalLoop=1;jettySize=auto;html=1;exitX=1;exitY=0.5;exitDx=0;exitDy=0;entryX=0.5;entryY=0;entryDx=0;entryDy=0;" edge="1" parent="1" source="CyLRwEdK9yTQJQerz9uX-5" target="CyLRwEdK9yTQJQerz9uX-7">
          <mxGeometry relative="1" as="geometry" />
        </mxCell>
        <mxCell id="CyLRwEdK9yTQJQerz9uX-5" value="SSO with DMS successful?" style="rhombus;whiteSpace=wrap;html=1;" vertex="1" parent="1">
          <mxGeometry x="352.5" y="260" width="105" height="110" as="geometry" />
        </mxCell>
        <mxCell id="CyLRwEdK9yTQJQerz9uX-38" style="edgeStyle=orthogonalEdgeStyle;rounded=0;orthogonalLoop=1;jettySize=auto;html=1;exitX=0.5;exitY=1;exitDx=0;exitDy=0;entryX=0.5;entryY=0;entryDx=0;entryDy=0;" edge="1" parent="1" source="CyLRwEdK9yTQJQerz9uX-6" target="CyLRwEdK9yTQJQerz9uX-9">
          <mxGeometry relative="1" as="geometry" />
        </mxCell>
        <mxCell id="CyLRwEdK9yTQJQerz9uX-6" value="Authentication user" style="rounded=1;whiteSpace=wrap;html=1;" vertex="1" parent="1">
          <mxGeometry x="160" y="390" width="120" height="60" as="geometry" />
        </mxCell>
        <mxCell id="CyLRwEdK9yTQJQerz9uX-71" style="edgeStyle=orthogonalEdgeStyle;rounded=0;orthogonalLoop=1;jettySize=auto;html=1;exitX=0.5;exitY=1;exitDx=0;exitDy=0;entryX=0.5;entryY=0;entryDx=0;entryDy=0;" edge="1" parent="1" source="CyLRwEdK9yTQJQerz9uX-7" target="CyLRwEdK9yTQJQerz9uX-8">
          <mxGeometry relative="1" as="geometry" />
        </mxCell>
        <mxCell id="CyLRwEdK9yTQJQerz9uX-7" value="Show authentication error" style="rounded=1;whiteSpace=wrap;html=1;" vertex="1" parent="1">
          <mxGeometry x="550" y="390" width="120" height="60" as="geometry" />
        </mxCell>
        <mxCell id="CyLRwEdK9yTQJQerz9uX-8" value="" style="ellipse;html=1;shape=endState;fillColor=#000000;strokeColor=#ff0000;" vertex="1" parent="1">
          <mxGeometry x="595" y="520" width="30" height="30" as="geometry" />
        </mxCell>
        <mxCell id="CyLRwEdK9yTQJQerz9uX-39" style="edgeStyle=orthogonalEdgeStyle;rounded=0;orthogonalLoop=1;jettySize=auto;html=1;exitX=0.5;exitY=1;exitDx=0;exitDy=0;entryX=0.5;entryY=0;entryDx=0;entryDy=0;" edge="1" parent="1" source="CyLRwEdK9yTQJQerz9uX-9" target="CyLRwEdK9yTQJQerz9uX-10">
          <mxGeometry relative="1" as="geometry" />
        </mxCell>
        <mxCell id="CyLRwEdK9yTQJQerz9uX-9" value="Sync user roles and permissions from Moodle" style="rounded=1;whiteSpace=wrap;html=1;" vertex="1" parent="1">
          <mxGeometry x="160" y="540" width="120" height="60" as="geometry" />
        </mxCell>
        <mxCell id="CyLRwEdK9yTQJQerz9uX-40" style="edgeStyle=orthogonalEdgeStyle;rounded=0;orthogonalLoop=1;jettySize=auto;html=1;exitX=0.5;exitY=1;exitDx=0;exitDy=0;" edge="1" parent="1" source="CyLRwEdK9yTQJQerz9uX-10" target="CyLRwEdK9yTQJQerz9uX-11">
          <mxGeometry relative="1" as="geometry" />
        </mxCell>
        <mxCell id="CyLRwEdK9yTQJQerz9uX-10" value="Access Moodle dashboard" style="rounded=1;whiteSpace=wrap;html=1;" vertex="1" parent="1">
          <mxGeometry x="340" y="670" width="120" height="60" as="geometry" />
        </mxCell>
        <mxCell id="CyLRwEdK9yTQJQerz9uX-43" style="edgeStyle=orthogonalEdgeStyle;rounded=0;orthogonalLoop=1;jettySize=auto;html=1;exitX=1;exitY=0.5;exitDx=0;exitDy=0;entryX=0.5;entryY=0;entryDx=0;entryDy=0;" edge="1" parent="1" source="CyLRwEdK9yTQJQerz9uX-11" target="CyLRwEdK9yTQJQerz9uX-14">
          <mxGeometry relative="1" as="geometry" />
        </mxCell>
        <mxCell id="CyLRwEdK9yTQJQerz9uX-11" value="User selects DMS option?" style="rhombus;whiteSpace=wrap;html=1;" vertex="1" parent="1">
          <mxGeometry x="352.5" y="820" width="95" height="100" as="geometry" />
        </mxCell>
        <mxCell id="CyLRwEdK9yTQJQerz9uX-47" style="edgeStyle=orthogonalEdgeStyle;rounded=0;orthogonalLoop=1;jettySize=auto;html=1;exitX=0.5;exitY=1;exitDx=0;exitDy=0;" edge="1" parent="1" source="CyLRwEdK9yTQJQerz9uX-12" target="CyLRwEdK9yTQJQerz9uX-13">
          <mxGeometry relative="1" as="geometry" />
        </mxCell>
        <mxCell id="CyLRwEdK9yTQJQerz9uX-12" value="Redirect to DMS interface within Moodle" style="rounded=1;whiteSpace=wrap;html=1;" vertex="1" parent="1">
          <mxGeometry x="140" y="920" width="120" height="60" as="geometry" />
        </mxCell>
        <mxCell id="CyLRwEdK9yTQJQerz9uX-48" style="edgeStyle=orthogonalEdgeStyle;rounded=0;orthogonalLoop=1;jettySize=auto;html=1;exitX=0.5;exitY=1;exitDx=0;exitDy=0;entryX=0.5;entryY=0;entryDx=0;entryDy=0;" edge="1" parent="1" source="CyLRwEdK9yTQJQerz9uX-13" target="CyLRwEdK9yTQJQerz9uX-15">
          <mxGeometry relative="1" as="geometry" />
        </mxCell>
        <mxCell id="CyLRwEdK9yTQJQerz9uX-13" value="Display document management features" style="rounded=1;whiteSpace=wrap;html=1;" vertex="1" parent="1">
          <mxGeometry x="140" y="1070" width="120" height="60" as="geometry" />
        </mxCell>
        <mxCell id="CyLRwEdK9yTQJQerz9uX-46" style="edgeStyle=orthogonalEdgeStyle;rounded=0;orthogonalLoop=1;jettySize=auto;html=1;exitX=1;exitY=0.5;exitDx=0;exitDy=0;entryX=1;entryY=0.5;entryDx=0;entryDy=0;" edge="1" parent="1" source="CyLRwEdK9yTQJQerz9uX-14" target="CyLRwEdK9yTQJQerz9uX-30">
          <mxGeometry relative="1" as="geometry" />
        </mxCell>
        <mxCell id="CyLRwEdK9yTQJQerz9uX-14" value="Continue using Moodle features" style="rounded=1;whiteSpace=wrap;html=1;" vertex="1" parent="1">
          <mxGeometry x="530" y="920" width="120" height="60" as="geometry" />
        </mxCell>
        <mxCell id="CyLRwEdK9yTQJQerz9uX-70" style="edgeStyle=orthogonalEdgeStyle;rounded=0;orthogonalLoop=1;jettySize=auto;html=1;exitX=1;exitY=0.5;exitDx=0;exitDy=0;entryX=1;entryY=0.5;entryDx=0;entryDy=0;" edge="1" parent="1" source="CyLRwEdK9yTQJQerz9uX-15" target="CyLRwEdK9yTQJQerz9uX-20">
          <mxGeometry relative="1" as="geometry">
            <Array as="points">
              <mxPoint x="350" y="1255" />
              <mxPoint x="350" y="1960" />
            </Array>
          </mxGeometry>
        </mxCell>
        <mxCell id="CyLRwEdK9yTQJQerz9uX-15" value="User uploads a document?" style="rhombus;whiteSpace=wrap;html=1;" vertex="1" parent="1">
          <mxGeometry x="150" y="1210" width="100" height="90" as="geometry" />
        </mxCell>
        <mxCell id="CyLRwEdK9yTQJQerz9uX-51" style="edgeStyle=orthogonalEdgeStyle;rounded=0;orthogonalLoop=1;jettySize=auto;html=1;exitX=0.5;exitY=1;exitDx=0;exitDy=0;entryX=0.5;entryY=0;entryDx=0;entryDy=0;" edge="1" parent="1" source="CyLRwEdK9yTQJQerz9uX-16" target="CyLRwEdK9yTQJQerz9uX-17">
          <mxGeometry relative="1" as="geometry" />
        </mxCell>
        <mxCell id="CyLRwEdK9yTQJQerz9uX-16" value="Select document" style="rounded=1;whiteSpace=wrap;html=1;" vertex="1" parent="1">
          <mxGeometry x="150" y="1370" width="120" height="60" as="geometry" />
        </mxCell>
        <mxCell id="CyLRwEdK9yTQJQerz9uX-52" style="edgeStyle=orthogonalEdgeStyle;rounded=0;orthogonalLoop=1;jettySize=auto;html=1;exitX=0.5;exitY=1;exitDx=0;exitDy=0;entryX=0.5;entryY=0;entryDx=0;entryDy=0;" edge="1" parent="1" source="CyLRwEdK9yTQJQerz9uX-17" target="CyLRwEdK9yTQJQerz9uX-18">
          <mxGeometry relative="1" as="geometry" />
        </mxCell>
        <mxCell id="CyLRwEdK9yTQJQerz9uX-17" value="Add metadata (tags, descriptions, etc.)" style="rounded=1;whiteSpace=wrap;html=1;" vertex="1" parent="1">
          <mxGeometry x="150" y="1500" width="120" height="60" as="geometry" />
        </mxCell>
        <mxCell id="CyLRwEdK9yTQJQerz9uX-53" style="edgeStyle=orthogonalEdgeStyle;rounded=0;orthogonalLoop=1;jettySize=auto;html=1;exitX=0.5;exitY=1;exitDx=0;exitDy=0;" edge="1" parent="1" source="CyLRwEdK9yTQJQerz9uX-18" target="CyLRwEdK9yTQJQerz9uX-19">
          <mxGeometry relative="1" as="geometry" />
        </mxCell>
        <mxCell id="CyLRwEdK9yTQJQerz9uX-18" value="Store document in DMS storage" style="rounded=1;whiteSpace=wrap;html=1;" vertex="1" parent="1">
          <mxGeometry x="150" y="1640" width="120" height="60" as="geometry" />
        </mxCell>
        <mxCell id="CyLRwEdK9yTQJQerz9uX-54" style="edgeStyle=orthogonalEdgeStyle;rounded=0;orthogonalLoop=1;jettySize=auto;html=1;exitX=0.5;exitY=1;exitDx=0;exitDy=0;entryX=0.5;entryY=0;entryDx=0;entryDy=0;" edge="1" parent="1" source="CyLRwEdK9yTQJQerz9uX-19" target="CyLRwEdK9yTQJQerz9uX-20">
          <mxGeometry relative="1" as="geometry" />
        </mxCell>
        <mxCell id="CyLRwEdK9yTQJQerz9uX-19" value="Notify relevant users" style="rounded=1;whiteSpace=wrap;html=1;" vertex="1" parent="1">
          <mxGeometry x="150" y="1770" width="120" height="60" as="geometry" />
        </mxCell>
        <mxCell id="CyLRwEdK9yTQJQerz9uX-55" style="edgeStyle=orthogonalEdgeStyle;rounded=0;orthogonalLoop=1;jettySize=auto;html=1;exitX=0.5;exitY=1;exitDx=0;exitDy=0;entryX=0.5;entryY=0;entryDx=0;entryDy=0;" edge="1" parent="1" source="CyLRwEdK9yTQJQerz9uX-20" target="CyLRwEdK9yTQJQerz9uX-21">
          <mxGeometry relative="1" as="geometry" />
        </mxCell>
        <mxCell id="CyLRwEdK9yTQJQerz9uX-20" value="" style="rhombus;whiteSpace=wrap;html=1;" vertex="1" parent="1">
          <mxGeometry x="170" y="1920" width="80" height="80" as="geometry" />
        </mxCell>
        <mxCell id="CyLRwEdK9yTQJQerz9uX-69" style="edgeStyle=orthogonalEdgeStyle;rounded=0;orthogonalLoop=1;jettySize=auto;html=1;exitX=1;exitY=0.5;exitDx=0;exitDy=0;entryX=1;entryY=0.5;entryDx=0;entryDy=0;" edge="1" parent="1" source="CyLRwEdK9yTQJQerz9uX-21" target="CyLRwEdK9yTQJQerz9uX-24">
          <mxGeometry relative="1" as="geometry">
            <Array as="points">
              <mxPoint x="370" y="2130" />
              <mxPoint x="370" y="2580" />
            </Array>
          </mxGeometry>
        </mxCell>
        <mxCell id="CyLRwEdK9yTQJQerz9uX-21" value="User downloads a document?" style="rhombus;whiteSpace=wrap;html=1;" vertex="1" parent="1">
          <mxGeometry x="140" y="2080" width="140" height="100" as="geometry" />
        </mxCell>
        <mxCell id="CyLRwEdK9yTQJQerz9uX-58" style="edgeStyle=orthogonalEdgeStyle;rounded=0;orthogonalLoop=1;jettySize=auto;html=1;exitX=0.5;exitY=1;exitDx=0;exitDy=0;entryX=0.5;entryY=0;entryDx=0;entryDy=0;" edge="1" parent="1" source="CyLRwEdK9yTQJQerz9uX-22" target="CyLRwEdK9yTQJQerz9uX-23">
          <mxGeometry relative="1" as="geometry" />
        </mxCell>
        <mxCell id="CyLRwEdK9yTQJQerz9uX-22" value="Fetch document from DMS storage" style="rounded=1;whiteSpace=wrap;html=1;" vertex="1" parent="1">
          <mxGeometry x="170" y="2250" width="120" height="60" as="geometry" />
        </mxCell>
        <mxCell id="CyLRwEdK9yTQJQerz9uX-59" style="edgeStyle=orthogonalEdgeStyle;rounded=0;orthogonalLoop=1;jettySize=auto;html=1;exitX=0.5;exitY=1;exitDx=0;exitDy=0;entryX=0.5;entryY=0;entryDx=0;entryDy=0;" edge="1" parent="1" source="CyLRwEdK9yTQJQerz9uX-23" target="CyLRwEdK9yTQJQerz9uX-24">
          <mxGeometry relative="1" as="geometry" />
        </mxCell>
        <mxCell id="CyLRwEdK9yTQJQerz9uX-23" value="Allow user to Download" style="rounded=1;whiteSpace=wrap;html=1;" vertex="1" parent="1">
          <mxGeometry x="170" y="2390" width="120" height="60" as="geometry" />
        </mxCell>
        <mxCell id="CyLRwEdK9yTQJQerz9uX-60" style="edgeStyle=orthogonalEdgeStyle;rounded=0;orthogonalLoop=1;jettySize=auto;html=1;exitX=0.5;exitY=1;exitDx=0;exitDy=0;entryX=0.5;entryY=0;entryDx=0;entryDy=0;" edge="1" parent="1" source="CyLRwEdK9yTQJQerz9uX-24" target="CyLRwEdK9yTQJQerz9uX-25">
          <mxGeometry relative="1" as="geometry" />
        </mxCell>
        <mxCell id="CyLRwEdK9yTQJQerz9uX-24" value="" style="rhombus;whiteSpace=wrap;html=1;" vertex="1" parent="1">
          <mxGeometry x="190" y="2540" width="80" height="80" as="geometry" />
        </mxCell>
        <mxCell id="CyLRwEdK9yTQJQerz9uX-61" style="edgeStyle=orthogonalEdgeStyle;rounded=0;orthogonalLoop=1;jettySize=auto;html=1;exitX=0.5;exitY=1;exitDx=0;exitDy=0;entryX=0.5;entryY=0;entryDx=0;entryDy=0;" edge="1" parent="1" source="CyLRwEdK9yTQJQerz9uX-25" target="CyLRwEdK9yTQJQerz9uX-26">
          <mxGeometry relative="1" as="geometry" />
        </mxCell>
        <mxCell id="CyLRwEdK9yTQJQerz9uX-68" style="edgeStyle=orthogonalEdgeStyle;rounded=0;orthogonalLoop=1;jettySize=auto;html=1;exitX=1;exitY=0.5;exitDx=0;exitDy=0;entryX=1;entryY=0.5;entryDx=0;entryDy=0;" edge="1" parent="1" source="CyLRwEdK9yTQJQerz9uX-25" target="CyLRwEdK9yTQJQerz9uX-29">
          <mxGeometry relative="1" as="geometry" />
        </mxCell>
        <mxCell id="CyLRwEdK9yTQJQerz9uX-25" value="User searchers for documents?" style="rhombus;whiteSpace=wrap;html=1;" vertex="1" parent="1">
          <mxGeometry x="165" y="2700" width="130" height="100" as="geometry" />
        </mxCell>
        <mxCell id="CyLRwEdK9yTQJQerz9uX-63" style="edgeStyle=orthogonalEdgeStyle;rounded=0;orthogonalLoop=1;jettySize=auto;html=1;exitX=0.5;exitY=1;exitDx=0;exitDy=0;entryX=0.5;entryY=0;entryDx=0;entryDy=0;" edge="1" parent="1" source="CyLRwEdK9yTQJQerz9uX-26" target="CyLRwEdK9yTQJQerz9uX-27">
          <mxGeometry relative="1" as="geometry" />
        </mxCell>
        <mxCell id="CyLRwEdK9yTQJQerz9uX-26" value="Enter search query" style="rounded=1;whiteSpace=wrap;html=1;" vertex="1" parent="1">
          <mxGeometry x="170" y="2910" width="120" height="60" as="geometry" />
        </mxCell>
        <mxCell id="CyLRwEdK9yTQJQerz9uX-64" style="edgeStyle=orthogonalEdgeStyle;rounded=0;orthogonalLoop=1;jettySize=auto;html=1;exitX=0.5;exitY=1;exitDx=0;exitDy=0;entryX=0.5;entryY=0;entryDx=0;entryDy=0;" edge="1" parent="1" source="CyLRwEdK9yTQJQerz9uX-27" target="CyLRwEdK9yTQJQerz9uX-28">
          <mxGeometry relative="1" as="geometry" />
        </mxCell>
        <mxCell id="CyLRwEdK9yTQJQerz9uX-27" value="Fetch matching documents based on query" style="rounded=1;whiteSpace=wrap;html=1;" vertex="1" parent="1">
          <mxGeometry x="170" y="3060" width="120" height="60" as="geometry" />
        </mxCell>
        <mxCell id="CyLRwEdK9yTQJQerz9uX-65" style="edgeStyle=orthogonalEdgeStyle;rounded=0;orthogonalLoop=1;jettySize=auto;html=1;exitX=0.5;exitY=1;exitDx=0;exitDy=0;entryX=0.5;entryY=0;entryDx=0;entryDy=0;" edge="1" parent="1" source="CyLRwEdK9yTQJQerz9uX-28" target="CyLRwEdK9yTQJQerz9uX-29">
          <mxGeometry relative="1" as="geometry" />
        </mxCell>
        <mxCell id="CyLRwEdK9yTQJQerz9uX-28" value="Display results" style="rounded=1;whiteSpace=wrap;html=1;" vertex="1" parent="1">
          <mxGeometry x="170" y="3200" width="120" height="60" as="geometry" />
        </mxCell>
        <mxCell id="CyLRwEdK9yTQJQerz9uX-66" style="edgeStyle=orthogonalEdgeStyle;rounded=0;orthogonalLoop=1;jettySize=auto;html=1;exitX=0.5;exitY=1;exitDx=0;exitDy=0;entryX=0;entryY=0.5;entryDx=0;entryDy=0;" edge="1" parent="1" source="CyLRwEdK9yTQJQerz9uX-29" target="CyLRwEdK9yTQJQerz9uX-30">
          <mxGeometry relative="1" as="geometry" />
        </mxCell>
        <mxCell id="CyLRwEdK9yTQJQerz9uX-29" value="" style="rhombus;whiteSpace=wrap;html=1;" vertex="1" parent="1">
          <mxGeometry x="190" y="3340" width="80" height="80" as="geometry" />
        </mxCell>
        <mxCell id="CyLRwEdK9yTQJQerz9uX-67" style="edgeStyle=orthogonalEdgeStyle;rounded=0;orthogonalLoop=1;jettySize=auto;html=1;exitX=0.5;exitY=1;exitDx=0;exitDy=0;entryX=0.5;entryY=0;entryDx=0;entryDy=0;" edge="1" parent="1" source="CyLRwEdK9yTQJQerz9uX-30" target="CyLRwEdK9yTQJQerz9uX-31">
          <mxGeometry relative="1" as="geometry" />
        </mxCell>
        <mxCell id="CyLRwEdK9yTQJQerz9uX-30" value="" style="rhombus;whiteSpace=wrap;html=1;" vertex="1" parent="1">
          <mxGeometry x="440" y="3440" width="80" height="80" as="geometry" />
        </mxCell>
        <mxCell id="CyLRwEdK9yTQJQerz9uX-31" value="" style="ellipse;html=1;shape=endState;fillColor=#000000;strokeColor=#ff0000;" vertex="1" parent="1">
          <mxGeometry x="465" y="3600" width="30" height="30" as="geometry" />
        </mxCell>
        <mxCell id="CyLRwEdK9yTQJQerz9uX-34" value="No" style="text;html=1;align=center;verticalAlign=middle;resizable=0;points=[];autosize=1;strokeColor=none;fillColor=none;" vertex="1" parent="1">
          <mxGeometry x="457.5" y="290" width="40" height="30" as="geometry" />
        </mxCell>
        <mxCell id="CyLRwEdK9yTQJQerz9uX-35" style="edgeStyle=orthogonalEdgeStyle;rounded=0;orthogonalLoop=1;jettySize=auto;html=1;exitX=0;exitY=0.5;exitDx=0;exitDy=0;entryX=0.325;entryY=0.005;entryDx=0;entryDy=0;entryPerimeter=0;" edge="1" parent="1" source="CyLRwEdK9yTQJQerz9uX-5" target="CyLRwEdK9yTQJQerz9uX-6">
          <mxGeometry relative="1" as="geometry" />
        </mxCell>
        <mxCell id="CyLRwEdK9yTQJQerz9uX-36" value="Yes" style="text;html=1;align=center;verticalAlign=middle;resizable=0;points=[];autosize=1;strokeColor=none;fillColor=none;" vertex="1" parent="1">
          <mxGeometry x="295" y="290" width="40" height="30" as="geometry" />
        </mxCell>
        <mxCell id="CyLRwEdK9yTQJQerz9uX-41" style="edgeStyle=orthogonalEdgeStyle;rounded=0;orthogonalLoop=1;jettySize=auto;html=1;exitX=0;exitY=0.5;exitDx=0;exitDy=0;entryX=0.372;entryY=-0.003;entryDx=0;entryDy=0;entryPerimeter=0;" edge="1" parent="1" source="CyLRwEdK9yTQJQerz9uX-11" target="CyLRwEdK9yTQJQerz9uX-12">
          <mxGeometry relative="1" as="geometry" />
        </mxCell>
        <mxCell id="CyLRwEdK9yTQJQerz9uX-42" value="Yes" style="text;html=1;align=center;verticalAlign=middle;resizable=0;points=[];autosize=1;strokeColor=none;fillColor=none;" vertex="1" parent="1">
          <mxGeometry x="290" y="848" width="40" height="30" as="geometry" />
        </mxCell>
        <mxCell id="CyLRwEdK9yTQJQerz9uX-44" value="No" style="text;html=1;align=center;verticalAlign=middle;resizable=0;points=[];autosize=1;strokeColor=none;fillColor=none;" vertex="1" parent="1">
          <mxGeometry x="447.5" y="848" width="40" height="30" as="geometry" />
        </mxCell>
        <mxCell id="CyLRwEdK9yTQJQerz9uX-49" style="edgeStyle=orthogonalEdgeStyle;rounded=0;orthogonalLoop=1;jettySize=auto;html=1;exitX=0.5;exitY=1;exitDx=0;exitDy=0;entryX=0.422;entryY=0.062;entryDx=0;entryDy=0;entryPerimeter=0;" edge="1" parent="1" source="CyLRwEdK9yTQJQerz9uX-15" target="CyLRwEdK9yTQJQerz9uX-16">
          <mxGeometry relative="1" as="geometry" />
        </mxCell>
        <mxCell id="CyLRwEdK9yTQJQerz9uX-50" value="Yes" style="text;html=1;align=center;verticalAlign=middle;resizable=0;points=[];autosize=1;strokeColor=none;fillColor=none;" vertex="1" parent="1">
          <mxGeometry x="190" y="1308" width="40" height="30" as="geometry" />
        </mxCell>
        <mxCell id="CyLRwEdK9yTQJQerz9uX-56" style="edgeStyle=orthogonalEdgeStyle;rounded=0;orthogonalLoop=1;jettySize=auto;html=1;exitX=0.5;exitY=1;exitDx=0;exitDy=0;entryX=0.332;entryY=0.02;entryDx=0;entryDy=0;entryPerimeter=0;" edge="1" parent="1" source="CyLRwEdK9yTQJQerz9uX-21" target="CyLRwEdK9yTQJQerz9uX-22">
          <mxGeometry relative="1" as="geometry" />
        </mxCell>
        <mxCell id="CyLRwEdK9yTQJQerz9uX-57" value="Yes" style="text;html=1;align=center;verticalAlign=middle;resizable=0;points=[];autosize=1;strokeColor=none;fillColor=none;" vertex="1" parent="1">
          <mxGeometry x="200" y="2180" width="40" height="30" as="geometry" />
        </mxCell>
        <mxCell id="CyLRwEdK9yTQJQerz9uX-62" value="Yes" style="text;html=1;align=center;verticalAlign=middle;resizable=0;points=[];autosize=1;strokeColor=none;fillColor=none;" vertex="1" parent="1">
          <mxGeometry x="220" y="2808" width="40" height="30" as="geometry" />
        </mxCell>
      </root>
    </mxGraphModel>
  </diagram>
</mxfile>
